<svg width="141" height="19" viewBox="0 0 141 19" fill="none" xmlns="http://www.w3.org/2000/svg">
<path d="M8.50194 1.008H11.5499L13.4699 6.648L15.3899 1.008H18.4619L15.5579 8.76L17.7179 14.208L22.5419 0.959999H26.1419L19.2059 18H16.4219L13.4699 10.848L10.5179 18H7.73394L0.84594 0.959999H4.39794L9.24594 14.208L11.3579 8.76L8.50194 1.008ZM32.5807 18.24C31.5727 18.24 30.6607 18.072 29.8447 17.736C29.0287 17.384 28.3327 16.912 27.7567 16.32C27.1807 15.728 26.7327 15.04 26.4127 14.256C26.1087 13.472 25.9567 12.648 25.9567 11.784C25.9567 10.888 26.1087 10.048 26.4127 9.264C26.7167 8.464 27.1567 7.768 27.7327 7.176C28.3087 6.568 29.0047 6.088 29.8207 5.736C30.6527 5.384 31.5807 5.208 32.6047 5.208C33.6287 5.208 34.5407 5.384 35.3407 5.736C36.1567 6.088 36.8447 6.56 37.4047 7.152C37.9807 7.744 38.4127 8.432 38.7007 9.216C39.0047 10 39.1567 10.816 39.1567 11.664C39.1567 11.872 39.1487 12.072 39.1327 12.264C39.1327 12.456 39.1167 12.616 39.0847 12.744H29.3647C29.4127 13.24 29.5327 13.68 29.7247 14.064C29.9167 14.448 30.1647 14.776 30.4687 15.048C30.7727 15.32 31.1167 15.528 31.5007 15.672C31.8847 15.816 32.2847 15.888 32.7007 15.888C33.3407 15.888 33.9407 15.736 34.5007 15.432C35.0767 15.112 35.4687 14.696 35.6767 14.184L38.4367 14.952C37.9727 15.912 37.2287 16.704 36.2047 17.328C35.1967 17.936 33.9887 18.24 32.5807 18.24ZM35.8447 10.656C35.7647 9.712 35.4127 8.96 34.7887 8.4C34.1807 7.824 33.4367 7.536 32.5567 7.536C32.1247 7.536 31.7167 7.616 31.3327 7.776C30.9647 7.92 30.6367 8.128 30.3487 8.4C30.0607 8.672 29.8207 9 29.6287 9.384C29.4527 9.768 29.3487 10.192 29.3167 10.656H35.8447ZM48.9879 18.24C48.0279 18.24 47.1719 18.024 46.4199 17.592C45.6679 17.16 45.0759 16.568 44.6439 15.816V18H41.8359V0.48H45.0519V7.632C45.4999 6.864 46.0839 6.272 46.8039 5.856C47.5399 5.424 48.3959 5.208 49.3719 5.208C50.1879 5.208 50.9319 5.384 51.6039 5.736C52.2759 6.088 52.8519 6.56 53.3319 7.152C53.8279 7.744 54.2039 8.44 54.4599 9.24C54.7319 10.04 54.8679 10.88 54.8679 11.76C54.8679 12.672 54.7159 13.52 54.4119 14.304C54.1239 15.088 53.7159 15.776 53.1879 16.368C52.6599 16.944 52.0359 17.4 51.3159 17.736C50.5959 18.072 49.8199 18.24 48.9879 18.24ZM48.0999 15.504C48.6119 15.504 49.0839 15.408 49.5159 15.216C49.9479 15.008 50.3159 14.736 50.6199 14.4C50.9239 14.064 51.1559 13.672 51.3159 13.224C51.4919 12.776 51.5799 12.296 51.5799 11.784C51.5799 11.272 51.4999 10.784 51.3399 10.32C51.1799 9.856 50.9479 9.448 50.6439 9.096C50.3559 8.744 50.0119 8.464 49.6119 8.256C49.2119 8.048 48.7719 7.944 48.2919 7.944C47.5719 7.944 46.9239 8.184 46.3479 8.664C45.7879 9.128 45.3559 9.704 45.0519 10.392V13.392C45.1639 13.712 45.3239 14 45.5319 14.256C45.7559 14.512 46.0039 14.736 46.2759 14.928C46.5479 15.104 46.8439 15.248 47.1639 15.36C47.4839 15.456 47.7959 15.504 48.0999 15.504Z" fill="#2196F3"/>
<path d="M74.7164 5.424C74.6044 5.312 74.3964 5.16 74.0924 4.968C73.8044 4.776 73.4444 4.592 73.0124 4.416C72.5964 4.224 72.1404 4.064 71.6444 3.936C71.1484 3.808 70.6444 3.744 70.1324 3.744C69.2204 3.744 68.5404 3.912 68.0924 4.248C67.6444 4.584 67.4204 5.056 67.4204 5.664C67.4204 6.016 67.5004 6.312 67.6604 6.552C67.8364 6.776 68.0844 6.976 68.4044 7.152C68.7244 7.328 69.1244 7.488 69.6044 7.632C70.1004 7.776 70.6684 7.928 71.3084 8.088C72.1404 8.312 72.8924 8.552 73.5644 8.808C74.2524 9.064 74.8284 9.384 75.2924 9.768C75.7724 10.152 76.1404 10.616 76.3964 11.16C76.6524 11.688 76.7804 12.344 76.7804 13.128C76.7804 14.04 76.6044 14.824 76.2524 15.48C75.9164 16.12 75.4524 16.64 74.8604 17.04C74.2844 17.44 73.6124 17.736 72.8444 17.928C72.0924 18.104 71.3004 18.192 70.4684 18.192C69.1884 18.192 67.9244 18 66.6764 17.616C65.4284 17.232 64.3084 16.688 63.3164 15.984L64.7804 13.128C64.9244 13.272 65.1804 13.464 65.5484 13.704C65.9324 13.928 66.3804 14.16 66.8924 14.4C67.4044 14.624 67.9724 14.816 68.5964 14.976C69.2204 15.136 69.8604 15.216 70.5164 15.216C72.3404 15.216 73.2524 14.632 73.2524 13.464C73.2524 13.096 73.1484 12.784 72.9404 12.528C72.7324 12.272 72.4364 12.048 72.0524 11.856C71.6684 11.664 71.2044 11.488 70.6604 11.328C70.1164 11.168 69.5084 10.992 68.8364 10.8C68.0204 10.576 67.3084 10.336 66.7004 10.08C66.1084 9.808 65.6124 9.496 65.2124 9.144C64.8124 8.776 64.5084 8.36 64.3004 7.896C64.1084 7.416 64.0124 6.848 64.0124 6.192C64.0124 5.328 64.1724 4.56 64.4924 3.888C64.8124 3.216 65.2524 2.656 65.8124 2.208C66.3884 1.76 67.0524 1.424 67.8044 1.2C68.5564 0.959999 69.3644 0.839999 70.2284 0.839999C71.4284 0.839999 72.5324 1.032 73.5404 1.416C74.5484 1.784 75.4284 2.224 76.1804 2.736L74.7164 5.424ZM87.0866 17.352C86.6546 17.544 86.1266 17.736 85.5026 17.928C84.8786 18.12 84.2226 18.216 83.5346 18.216C83.0866 18.216 82.6626 18.16 82.2626 18.048C81.8786 17.936 81.5346 17.76 81.2306 17.52C80.9426 17.264 80.7106 16.944 80.5346 16.56C80.3586 16.16 80.2706 15.68 80.2706 15.12V7.896H78.6146V5.424H80.2706V1.344H83.4866V5.424H86.1266V7.896H83.4866V14.04C83.4866 14.488 83.5986 14.808 83.8226 15C84.0626 15.176 84.3506 15.264 84.6866 15.264C85.0226 15.264 85.3506 15.208 85.6706 15.096C85.9906 14.984 86.2466 14.888 86.4386 14.808L87.0866 17.352ZM93.3215 18.24C92.0255 18.24 91.0415 17.824 90.3695 16.992C89.6975 16.16 89.3615 14.928 89.3615 13.296V5.424H92.5775V12.6C92.5775 14.536 93.2735 15.504 94.6655 15.504C95.2895 15.504 95.8895 15.32 96.4655 14.952C97.0575 14.568 97.5375 13.992 97.9055 13.224V5.424H101.122V14.304C101.122 14.64 101.178 14.88 101.29 15.024C101.418 15.168 101.618 15.248 101.89 15.264V18C101.57 18.064 101.298 18.104 101.074 18.12C100.866 18.136 100.674 18.144 100.498 18.144C99.9215 18.144 99.4495 18.016 99.0815 17.76C98.7295 17.488 98.5215 17.12 98.4575 16.656L98.3855 15.648C97.8255 16.512 97.1055 17.16 96.2255 17.592C95.3455 18.024 94.3775 18.24 93.3215 18.24ZM110.245 18.24C109.381 18.24 108.581 18.072 107.845 17.736C107.109 17.4 106.477 16.936 105.949 16.344C105.421 15.752 105.005 15.064 104.701 14.28C104.413 13.48 104.269 12.624 104.269 11.712C104.269 10.8 104.405 9.952 104.677 9.168C104.965 8.384 105.357 7.696 105.853 7.104C106.349 6.512 106.941 6.048 107.629 5.712C108.317 5.376 109.069 5.208 109.885 5.208C110.813 5.208 111.645 5.432 112.381 5.88C113.133 6.328 113.717 6.912 114.133 7.632V0.48H117.349V14.304C117.349 14.64 117.405 14.88 117.517 15.024C117.629 15.168 117.821 15.248 118.093 15.264V18C117.533 18.112 117.077 18.168 116.725 18.168C116.149 18.168 115.677 18.024 115.309 17.736C114.941 17.448 114.733 17.072 114.685 16.608L114.613 15.816C114.149 16.616 113.517 17.224 112.717 17.64C111.933 18.04 111.109 18.24 110.245 18.24ZM111.085 15.504C111.389 15.504 111.701 15.456 112.021 15.36C112.341 15.248 112.637 15.096 112.909 14.904C113.181 14.712 113.421 14.488 113.629 14.232C113.853 13.976 114.021 13.696 114.133 13.392V10.392C114.005 10.04 113.821 9.72 113.581 9.432C113.357 9.128 113.093 8.872 112.789 8.664C112.501 8.44 112.189 8.264 111.853 8.136C111.533 8.008 111.213 7.944 110.893 7.944C110.413 7.944 109.965 8.048 109.549 8.256C109.149 8.464 108.805 8.752 108.517 9.12C108.229 9.472 108.005 9.88 107.845 10.344C107.685 10.808 107.605 11.288 107.605 11.784C107.605 12.312 107.693 12.8 107.869 13.248C108.045 13.696 108.285 14.088 108.589 14.424C108.893 14.76 109.253 15.024 109.669 15.216C110.101 15.408 110.573 15.504 111.085 15.504ZM121.226 18V5.424H124.442V18H121.226ZM121.226 3.672V0.48H124.442V3.672H121.226ZM133.871 18.24C132.847 18.24 131.927 18.064 131.111 17.712C130.295 17.36 129.599 16.888 129.023 16.296C128.463 15.688 128.031 14.992 127.727 14.208C127.423 13.424 127.271 12.6 127.271 11.736C127.271 10.856 127.423 10.024 127.727 9.24C128.031 8.456 128.463 7.768 129.023 7.176C129.599 6.568 130.295 6.088 131.111 5.736C131.927 5.384 132.847 5.208 133.871 5.208C134.895 5.208 135.807 5.384 136.607 5.736C137.423 6.088 138.111 6.568 138.671 7.176C139.247 7.768 139.687 8.456 139.991 9.24C140.295 10.024 140.447 10.856 140.447 11.736C140.447 12.6 140.295 13.424 139.991 14.208C139.687 14.992 139.255 15.688 138.695 16.296C138.135 16.888 137.447 17.36 136.631 17.712C135.815 18.064 134.895 18.24 133.871 18.24ZM130.583 11.736C130.583 12.296 130.663 12.808 130.823 13.272C130.999 13.72 131.231 14.112 131.519 14.448C131.823 14.784 132.175 15.048 132.575 15.24C132.975 15.416 133.407 15.504 133.871 15.504C134.335 15.504 134.767 15.416 135.167 15.24C135.567 15.048 135.911 14.784 136.199 14.448C136.503 14.112 136.735 13.712 136.895 13.248C137.071 12.784 137.159 12.272 137.159 11.712C137.159 11.168 137.071 10.664 136.895 10.2C136.735 9.736 136.503 9.336 136.199 9C135.911 8.664 135.567 8.408 135.167 8.232C134.767 8.04 134.335 7.944 133.871 7.944C133.407 7.944 132.975 8.04 132.575 8.232C132.175 8.424 131.823 8.688 131.519 9.024C131.231 9.36 130.999 9.76 130.823 10.224C130.663 10.688 130.583 11.192 130.583 11.736Z" fill="white"/>
</svg>
